<svg width="789" height="161" viewBox="0 0 789 161" fill="none" xmlns="http://www.w3.org/2000/svg">
<path d="M7.4922 103.684C7.28206 102.591 7.13277 101.107 6.98972 99.9748C6.69368 97.636 6.41118 95.2955 6.14214 92.9542L3.66193 71.3773L1.35633 51.3824L0.448268 43.6988C0.283501 42.3109 0.0719591 40.8244 0.00258805 39.4236C-0.024668 38.8722 0.168673 38.0702 0.332473 37.5355C1.0086 35.3298 2.31742 33.4525 4.17268 32.0833C6.25354 30.5477 8.41477 29.1664 10.5697 27.745L20.2762 21.2834C25.8127 17.5597 31.372 13.8701 36.9537 10.2143C39.1849 8.75719 41.8627 6.61785 44.318 5.70029C45.7678 5.15877 48.4934 5.73124 49.1731 7.22461C49.7428 8.47689 50.1587 10.0209 50.6203 11.3335C51.5338 14.1425 52.6803 16.9856 53.4338 19.8428C56.308 18.6807 60.9837 16.1574 63.2864 19.7049C63.9722 20.7621 64.1674 24.3757 64.3178 25.7468L65.27 34.2906L65.3649 34.29C66.8614 34.2687 69.8648 33.8516 71.4606 33.6879L81.5533 32.7244C83.5069 32.5264 86.826 32.0781 88.6653 32.3774C89.905 32.5862 91.0533 33.1604 91.9642 34.0265C94.7513 36.6726 93.5415 40.5497 92.8654 43.8237L91.5606 50.1555L85.821 78.1858L76.1495 125.352L73.3087 139.399C72.7698 142.086 72.2581 144.801 71.6215 147.454C70.5708 151.834 66.566 155.536 61.9439 155.5C60.254 155.487 58.041 154.665 56.4074 154.161L49.5468 151.986C41.9924 149.648 34.4511 147.265 26.9235 144.84L14.3335 140.899C13.1001 140.517 11.8657 140.148 10.6633 139.731C8.64134 139.029 6.54843 138.852 5.0337 137.172C1.5815 133.342 2.9647 128.902 4.39169 124.592C5.23302 122.051 6.09889 119.259 6.82275 116.696C6.92571 113.343 7.33842 109.791 7.34905 106.388C7.35178 105.517 7.51646 104.565 7.4922 103.684Z" fill="#F1E185"/>
<path d="M7.4922 103.684C7.28206 102.591 7.13277 101.107 6.98972 99.9748C6.69368 97.636 6.41118 95.2955 6.14214 92.9542L3.66193 71.3773L1.35633 51.3824L0.448268 43.6988C0.283501 42.3109 0.0719591 40.8244 0.00258805 39.4236C-0.024668 38.8722 0.168673 38.0702 0.332473 37.5355C1.0086 35.3298 2.31742 33.4525 4.17268 32.0833C6.25354 30.5477 8.41477 29.1664 10.5697 27.745L20.2762 21.2834C25.8127 17.5597 31.372 13.8701 36.9537 10.2143C39.1849 8.75719 41.8627 6.61785 44.318 5.70029C45.7678 5.15877 48.4934 5.73124 49.1731 7.22461C49.7428 8.47689 50.1587 10.0209 50.6203 11.3335C51.5338 14.1425 52.6803 16.9856 53.4338 19.8428C56.308 18.6807 60.9837 16.1574 63.2864 19.7049C63.9722 20.7621 64.1674 24.3757 64.3178 25.7468L65.27 34.2906C58.7303 35.0437 51.7246 35.6549 45.1427 36.2601L39.5035 36.7831C38.4813 36.8795 36.7532 36.969 35.8212 37.2805C32.8885 38.2608 30.0596 40.9214 29.0562 43.8679C28.2544 46.2227 27.5661 48.6662 26.8552 51.0501L23.3554 62.4987L10.4072 105.089C10.0312 106.338 7.10208 116.322 6.82275 116.696C6.92571 113.343 7.33842 109.791 7.34905 106.388C7.35178 105.517 7.51646 104.565 7.4922 103.684Z" fill="black"/>
<path d="M7.4922 103.684C7.28206 102.591 7.13277 101.107 6.98972 99.9748C6.69368 97.636 6.41118 95.2955 6.14214 92.9542L3.66193 71.3773L1.35633 51.3824L0.448268 43.6988C0.283501 42.3109 0.071959 40.8244 0.00258805 39.4236C-0.024668 38.8722 0.168673 38.0702 0.332473 37.5355C1.0086 35.3298 2.31742 33.4525 4.17267 32.0833C6.25354 30.5477 8.41477 29.1664 10.5697 27.745L20.2762 21.2834C25.8127 17.5597 31.372 13.8701 36.9537 10.2143C39.1849 8.75719 41.8627 6.61785 44.318 5.70029C45.7678 5.15877 48.4934 5.73124 49.1731 7.22461C49.7428 8.47689 50.1587 10.0209 50.6203 11.3335C51.5338 14.1425 52.6803 16.9856 53.4338 19.8428C52.5256 20.0705 50.4137 20.9886 49.4237 21.3606L38.7541 25.4459L26.2117 30.2688C24.0289 31.1069 21.646 31.9037 19.5572 32.941C13.8064 35.7969 13.9183 41.5651 13.3408 47.0399L12.0814 59.5522L8.69278 92.3431C8.44888 94.9157 8.18731 97.4857 7.90807 100.055C7.81364 100.949 7.66971 102.895 7.4922 103.684Z" fill="#F1E185"/>
<path d="M8.20641 33.3677C9.58214 34.2974 11.0887 35.1834 12.5272 36.0096C11.7686 38.4523 10.548 41.125 9.6923 43.6519C8.17089 42.6508 6.83367 41.6773 5.25537 40.7047C6.27862 38.2752 7.26238 35.8292 8.20641 33.3677Z" fill="black"/>
<path d="M26.7799 34.4774C28.4357 34.5004 28.6768 35.8703 28.3689 37.2165C27.7716 39.8283 24.7739 44.3203 22.5554 45.8212C21.4464 45.4097 21.1359 45.2227 20.1988 44.4997C19.5935 43.9732 19.1547 43.5416 18.7699 42.8177C18.2089 41.7663 18.0974 40.5326 18.4606 39.3975C19.1047 37.3815 22.1971 34.849 23.3809 37.5757C24.0257 35.9669 25.1073 34.9567 26.7799 34.4774Z" fill="#F1E185"/>
<path d="M86.0373 34.6858C88.9115 34.4601 91.3663 36.4742 90.9566 39.4835C90.6797 41.5111 90.1926 43.5408 89.7749 45.5493L87.4081 56.9083L79.9206 93.0447C78.1472 94.7697 75.6642 96.8236 73.7572 98.4924L62.5488 108.315L25.1146 141.142C21.3397 139.942 17.3776 138.791 13.5774 137.643C11.8558 137.149 9.99951 136.615 8.31086 136.05C7.05454 135.576 6.06725 134.608 5.5428 133.392C4.53028 131.044 5.33793 128.84 6.02083 126.562L7.38398 121.995L12.0589 106.495L17.4856 88.4736L18.9577 83.564C19.2152 82.7023 19.552 81.4652 19.8745 80.6625L19.9405 80.5016C20.2609 79.7068 25.4699 74.9389 26.5342 73.9166L38.7711 62.177L55.9221 45.7282C59.0934 42.6433 62.2824 39.577 65.4889 36.5294C67.4056 36.2405 70.6298 36.0679 72.6766 35.886L86.0373 34.6858Z" fill="black"/>
<path d="M52.137 63.0321C52.4403 63.9512 52.668 64.9595 52.9924 65.9164C53.5578 67.5854 54.226 69.0726 54.9839 70.6642C56.5955 74.0449 58.6934 77.4436 60.1652 80.8657C62.438 86.2888 64.3943 91.6169 62.1127 97.4567C59.9339 103.03 53.6334 106.792 47.7628 104.518C45.9059 103.799 44.9704 102.478 44.2477 100.649C43.9311 101.603 43.6434 103.352 43.6031 104.36C43.4119 109.135 44.7778 111.299 47.7101 114.648C46.5143 114.355 44.9968 114.122 43.7694 113.898L37.4379 112.725C35.4499 112.406 33.3459 111.943 31.317 111.6C32.4912 111.069 33.6184 110.44 34.6868 109.719C37.8509 107.543 40.1641 103.849 40.8633 100.093C39.6346 101.264 38.5042 102.227 36.8003 102.601C34.9563 103.007 32.9962 102.743 31.4032 101.712C29.6144 100.555 28.5499 98.7668 28.1279 96.7006C25.6661 84.649 46.0668 72.4312 52.0464 63.1738L52.137 63.0321Z" fill="#F1E185"/>
<path d="M59.4416 124.577C60.3788 124.699 61.3829 124.972 62.3175 125.16C63.5915 125.417 64.8717 125.665 66.1378 125.959C65.8749 126.067 65.6146 126.182 65.3579 126.302C63.4219 127.216 62.8583 128.717 62.1901 130.593C65.2243 127.728 68.7368 130.84 68.3956 134.303C68.0167 138.155 63.661 141.283 60.895 143.643C59.7537 144.698 59.0213 145.444 58.0252 146.604C57.5908 145.419 57.3024 144.174 56.8408 142.999C55.9836 140.817 54.9848 138.7 54.3509 136.438C53.8787 134.753 53.6194 133.21 53.9886 131.482C54.5988 128.623 57.9012 126.778 60.2751 128.951C60.6303 129.275 60.8325 129.699 61.0532 130.115C61.339 127.582 61.0093 126.552 59.4416 124.577Z" fill="black"/>
<path d="M37.7595 41.4916C37.9363 41.6871 38.3797 43.021 38.5619 43.3912C39.429 45.1554 40.5311 46.7331 40.5706 48.7762C40.6098 50.8066 38.895 53.0747 36.7477 53.1092C36.0311 53.1207 35.6343 52.8302 35.1493 52.3295L35.13 52.5639C35.0001 54.1351 35.0778 54.5098 36.0634 55.674C34.623 55.7319 33.1139 55.7253 31.6673 55.7391C31.787 55.5799 32.2427 55.2175 32.4181 55.0544C33.3978 54.1437 33.7222 53.6224 34.1999 52.4047C33.6917 52.7276 33.2256 53.0335 32.6271 53.1594C32.0433 53.2874 31.4327 53.1652 30.943 52.8226C28.1008 50.8614 34.5836 45.0444 35.9601 43.6092C36.6038 42.9418 37.2048 42.2345 37.7595 41.4916Z" fill="black"/>
<path d="M121.604 130V123.216L154.5 83.92L121.604 44.624V37.84H142.212L167.812 68.176L193.156 37.84H213.764V44.624L180.74 83.92L213.764 123.088V130H193.156L167.556 99.792L142.212 130H121.604ZM223.893 130V37.84H293.525C296.938 37.84 300.053 38.6933 302.869 40.4C305.77 42.1067 308.074 44.4107 309.781 47.312C311.573 50.128 312.469 53.2853 312.469 56.784V74.064C312.469 75.1733 312.384 76.24 312.213 77.264C312.128 78.2027 311.914 79.0987 311.573 79.952C312.853 81.5733 313.92 83.4507 314.773 85.584C315.626 87.7173 316.053 89.8507 316.053 91.984V111.056C316.053 114.469 315.157 117.627 313.365 120.528C311.658 123.429 309.354 125.733 306.453 127.44C303.637 129.147 300.48 130 296.981 130H223.893ZM243.733 110.032H295.957V93.136H243.733V110.032ZM243.733 73.168H292.373V57.808H243.733V73.168ZM330.265 130V37.84H415.385V57.808H350.361V73.936H402.713V93.904H350.361V110.032H415.385V130H330.265ZM459.497 130V57.808H423.401V37.84H515.561V57.808H479.465V130H459.497ZM543.822 130C540.409 130 537.251 129.147 534.35 127.44C531.449 125.733 529.145 123.429 527.438 120.528C525.731 117.627 524.878 114.469 524.878 111.056V102.48H544.718V110.032H596.942V93.904H543.822C540.409 93.904 537.251 93.0507 534.35 91.344C531.449 89.6373 529.145 87.376 527.438 84.56C525.731 81.6587 524.878 78.4587 524.878 74.96V56.784C524.878 53.2853 525.731 50.128 527.438 47.312C529.145 44.4107 531.449 42.1067 534.35 40.4C537.251 38.6933 540.409 37.84 543.822 37.84H598.094C601.507 37.84 604.622 38.6933 607.438 40.4C610.339 42.1067 612.643 44.4107 614.35 47.312C616.142 50.128 617.038 53.2853 617.038 56.784V65.36H596.942V57.808H544.718V73.936H598.094C601.507 73.936 604.622 74.7893 607.438 76.496C610.339 78.2027 612.643 80.5067 614.35 83.408C616.142 86.224 617.038 89.3813 617.038 92.88V111.056C617.038 114.469 616.142 117.627 614.35 120.528C612.643 123.429 610.339 125.733 607.438 127.44C604.622 129.147 601.507 130 598.094 130H543.822ZM630.878 130V110.416H650.462V130H630.878ZM661.265 130V56.784C661.265 53.2853 662.118 50.128 663.825 47.312C665.532 44.4107 667.836 42.1067 670.737 40.4C673.638 38.6933 676.796 37.84 680.209 37.84H734.353C737.852 37.84 741.009 38.6933 743.825 40.4C746.726 42.1067 749.03 44.4107 750.737 47.312C752.529 50.128 753.425 53.2853 753.425 56.784V130H733.329V100.304H681.105V130H661.265ZM681.105 80.336H733.329V57.808H681.105V80.336ZM764.809 130V37.84H784.393V130H764.809Z" fill="#F1E185"/>
</svg>
