<svg width="533" height="854" viewBox="0 0 533 854" fill="none" xmlns="http://www.w3.org/2000/svg">
<path d="M42.6067 558.355C41.4117 552.14 40.5627 543.701 39.7492 537.26C38.0657 523.961 36.4592 510.651 34.9292 497.336L20.8247 374.632L7.7132 260.925L2.54922 217.23C1.61222 209.337 0.409218 200.884 0.0147177 192.917C-0.140282 189.782 0.95921 185.221 1.89071 182.18C5.73571 169.637 13.1787 158.961 23.7292 151.175C35.5627 142.442 47.8532 134.587 60.1077 126.503L115.307 89.757C146.792 68.5815 178.407 47.599 210.149 26.8095C222.837 18.523 238.065 6.35702 252.028 1.13902C260.273 -1.94048 275.773 1.31501 279.638 9.80751C282.878 16.929 285.243 25.7095 287.868 33.174C293.063 49.148 299.583 65.3165 303.868 81.565C320.213 74.956 346.803 60.6065 359.898 80.7805C363.798 86.7925 364.908 107.343 365.763 115.14L371.178 163.727L371.718 163.724C380.228 163.602 397.308 161.23 406.383 160.3L463.778 154.82C474.888 153.694 493.763 151.145 504.223 152.847C511.273 154.034 517.803 157.299 522.983 162.225C538.833 177.273 531.953 199.321 528.108 217.94L520.688 253.948L488.048 413.351L433.048 681.576L416.893 761.461C413.828 776.741 410.918 792.18 407.298 807.266C401.323 832.175 378.548 853.226 352.263 853.021C342.653 852.945 330.068 848.276 320.778 845.406L281.763 833.041C238.803 819.741 195.917 806.19 153.109 792.401L81.5122 769.99C74.4977 767.815 67.4782 765.716 60.6402 763.346C49.1417 759.356 37.2397 758.35 28.6257 748.795C8.99371 727.015 16.8597 701.766 24.9747 677.255C29.7592 662.805 34.6832 646.926 38.7997 632.351C39.3852 613.286 41.7322 593.085 41.7927 573.73C41.8082 568.78 42.7447 563.365 42.6067 558.355Z" fill="#F1E185"/>
<path d="M42.6067 558.355C41.4117 552.14 40.5627 543.701 39.7492 537.26C38.0657 523.961 36.4592 510.651 34.9292 497.336L20.8247 374.632L7.7132 260.925L2.54922 217.23C1.61222 209.337 0.409218 200.884 0.0147177 192.917C-0.140282 189.782 0.95921 185.221 1.89071 182.18C5.73571 169.637 13.1787 158.961 23.7292 151.175C35.5627 142.442 47.8532 134.587 60.1077 126.503L115.307 89.757C146.792 68.5815 178.407 47.599 210.149 26.8095C222.837 18.523 238.065 6.35702 252.028 1.13902C260.273 -1.94048 275.773 1.31501 279.638 9.80751C282.878 16.929 285.243 25.7095 287.868 33.174C293.063 49.148 299.583 65.3165 303.868 81.565C320.213 74.956 346.803 60.6065 359.898 80.7805C363.798 86.7925 364.908 107.343 365.763 115.14L371.178 163.727C333.988 168.01 294.148 171.486 256.718 174.927L224.649 177.901C218.836 178.45 209.009 178.959 203.708 180.73C187.031 186.305 170.943 201.435 165.237 218.191C160.677 231.583 156.763 245.478 152.72 259.035L132.818 324.141L59.1837 566.346C57.0457 573.445 40.3882 630.226 38.7997 632.351C39.3852 613.286 41.7322 593.085 41.7927 573.73C41.8082 568.78 42.7447 563.365 42.6067 558.355Z" fill="black"/>
<path d="M42.6067 558.355C41.4117 552.14 40.5627 543.701 39.7492 537.26C38.0657 523.961 36.4592 510.651 34.9292 497.336L20.8247 374.632L7.7132 260.925L2.54922 217.23C1.61222 209.337 0.409218 200.884 0.0147177 192.917C-0.140282 189.782 0.95921 185.221 1.89071 182.18C5.73571 169.637 13.1787 158.961 23.7292 151.175C35.5627 142.442 47.8532 134.587 60.1077 126.503L115.307 89.757C146.792 68.5815 178.407 47.599 210.149 26.8095C222.837 18.523 238.065 6.35702 252.028 1.13902C260.273 -1.94048 275.773 1.31501 279.638 9.80751C282.878 16.929 285.243 25.7095 287.868 33.174C293.063 49.148 299.583 65.3165 303.868 81.565C298.703 82.8595 286.693 88.0805 281.063 90.196L220.387 113.429L149.061 140.856C136.648 145.622 123.097 150.153 111.218 156.052C78.5147 172.293 79.1507 205.096 75.8667 236.23L68.7047 307.385L49.4342 493.861C48.0472 508.491 46.5597 523.106 44.9717 537.716C44.4347 542.801 43.6162 553.865 42.6067 558.355Z" fill="#F1E185"/>
<path d="M46.6682 158.478C54.4917 163.765 63.0592 168.804 71.2397 173.502C66.9257 187.394 59.9842 202.593 55.1182 216.963C46.4662 211.27 38.8617 205.733 29.8862 200.203C35.7052 186.386 41.2997 172.476 46.6682 158.478Z" fill="black"/>
<path d="M152.292 164.789C161.709 164.92 163.08 172.71 161.329 180.366C157.932 195.219 140.885 220.764 128.268 229.299C121.962 226.959 120.196 225.895 114.867 221.784C111.425 218.79 108.929 216.336 106.741 212.219C103.551 206.24 102.916 199.223 104.982 192.768C108.645 181.304 126.231 166.902 132.963 182.409C136.63 173.26 142.78 167.515 152.292 164.789Z" fill="#EFE284"/>
<path d="M489.278 165.974C505.623 164.691 519.583 176.145 517.253 193.258C515.678 204.789 512.908 216.331 510.533 227.753L497.073 292.349L454.493 497.85C444.408 507.66 430.288 519.34 419.443 528.83L355.703 584.69L142.822 771.37C121.355 764.545 98.8233 758 77.2123 751.47C67.4218 748.665 56.8653 745.625 47.2623 742.415C40.1178 739.72 34.5033 734.215 31.5208 727.3C25.7628 713.945 30.3557 701.41 34.2392 688.455L41.9913 662.485L68.5768 574.34L99.4372 471.855L107.809 443.935C109.273 439.035 111.188 432 113.023 427.435L113.398 426.52C115.22 422 144.842 394.886 150.895 389.072L220.484 322.312L318.018 228.77C336.053 211.227 354.188 193.79 372.423 176.459C383.323 174.816 401.658 173.834 413.298 172.8L489.278 165.974Z" fill="black"/>
<path d="M296.493 327.174C298.218 332.401 299.513 338.135 301.358 343.577C304.573 353.068 308.373 361.525 312.683 370.577C321.848 389.802 333.778 409.13 342.148 428.591C355.073 459.431 366.198 489.73 353.223 522.94C340.833 554.635 305.003 576.031 271.618 563.096C261.058 559.006 255.738 551.496 251.628 541.096C249.828 546.521 248.192 556.465 247.963 562.195C246.876 589.35 254.643 601.66 271.318 620.706C264.518 619.035 255.888 617.71 248.908 616.44L212.902 609.766C201.597 607.956 189.632 605.32 178.094 603.37C184.771 600.35 191.182 596.775 197.257 592.675C215.251 580.3 228.406 559.29 232.382 537.93C225.395 544.59 218.966 550.065 209.276 552.195C198.79 554.505 187.643 553.001 178.584 547.141C168.412 540.561 162.358 530.391 159.958 518.641C145.958 450.105 261.973 380.625 295.978 327.98L296.493 327.174Z" fill="#F1E185"/>
<path d="M338.033 677.17C343.363 677.865 349.073 679.415 354.388 680.485C361.633 681.945 368.913 683.356 376.113 685.026C374.618 685.641 373.138 686.295 371.678 686.98C360.668 692.175 357.463 700.71 353.663 711.38C370.918 695.085 390.893 712.785 388.953 732.48C386.798 754.385 362.028 772.176 346.298 785.596C339.808 791.591 335.643 795.835 329.978 802.43C327.508 795.695 325.868 788.615 323.243 781.93C318.368 769.525 312.688 757.485 309.083 744.62C306.398 735.04 304.923 726.26 307.023 716.435C310.493 700.175 329.273 689.686 342.773 702.041C344.793 703.886 345.943 706.296 347.198 708.661C348.823 694.256 346.948 688.4 338.033 677.17Z" fill="black"/>
<path d="M214.731 204.677C215.737 205.789 218.258 213.375 219.294 215.48C224.225 225.513 230.493 234.485 230.717 246.104C230.94 257.65 221.189 270.548 208.977 270.744C204.902 270.81 202.646 269.158 199.888 266.311L199.778 267.643C199.039 276.579 199.481 278.709 205.086 285.33C196.894 285.659 188.312 285.622 180.086 285.7C180.767 284.795 183.358 282.734 184.356 281.807C189.927 276.628 191.772 273.663 194.488 266.738C191.598 268.574 188.948 270.314 185.544 271.03C182.224 271.758 178.752 271.063 175.967 269.115C159.804 257.962 196.67 224.881 204.498 216.72C208.159 212.924 211.577 208.902 214.731 204.677Z" fill="black"/>
</svg>
